# xmcd
#
# Track frame offsets: 
#        150
#        29243
#        48016
#        64359
#        80711
#        107149
#        128805
#        146388
#        171147
#        187905
#        201858
#        219728
#        245276
#        261741
#        282214
#
# Disc length: 4060 seconds
#
# Revision: 0
# Processed by: cddbd v1.5.2PL0 Copyright (c) Steve Scherf et al.
# Submitted via: ExactAudioCopy v0.99pb4
#
DISCID=e90fda0f
DTITLE=Kasa Chorych - Koncertowo
DYEAR=2008
DGENRE=blues
TTITLE0=Historia o ptaku, ktory odlecial do Boga
TTITLE1=Kapitan
TTITLE2=Pod prad
TTITLE3=Jest ok
TTITLE4=Obserwator
TTITLE5=Wolny wybor
TTITLE6=Puls
TTITLE7=No woman no cry
TTITLE8=Chce cie kochac
TTITLE9=Po dlugich przemysleniach radzimy panu
TTITLE10=MPO Blues
TTITLE11=Jak sie czujesz ze mna w lozku
TTITLE12=Przed nami drzwi zamkniete
TTITLE13=Kasa Chorych
TTITLE14=Ameryka
EXTD=
EXTT0=
EXTT1=
EXTT2=
EXTT3=
EXTT4=
EXTT5=
EXTT6=
EXTT7=
EXTT8=
EXTT9=
EXTT10=
EXTT11=
EXTT12=
EXTT13=
EXTT14=
PLAYORDER=
